<svg width="406" height="406" viewBox="0 0 406 406" fill="none" xmlns="http://www.w3.org/2000/svg">
<path d="M133.536 45.675C163.193 45.675 187.141 69.6226 187.141 99.2797C187.141 128.937 163.193 152.884 133.536 152.884C103.879 152.884 79.9312 128.778 79.9312 99.2797C79.9312 69.7812 103.879 45.675 133.536 45.675ZM299.425 282.138C306.245 282.138 311.795 285.627 311.795 290.068C311.795 294.509 306.245 297.998 299.425 297.998C292.605 297.998 287.055 294.509 287.055 290.068C287.055 285.627 292.605 282.138 299.425 282.138ZM236.78 219.811L230.595 237.415C224.252 224.252 217.908 211.564 212.991 202.841C207.599 191.423 199.194 181.748 188.727 174.929C178.259 168.109 165.73 164.145 152.409 164.145H70.0984C33.1461 163.986 3.17188 194.277 3.17188 230.912V332.254C3.17188 347.796 15.7008 360.325 31.243 360.325H352.712L402.828 219.811H236.78ZM341.77 344.783H140.514V335.743C140.514 321.787 129.095 310.368 115.139 310.368H53.1289V241.697C53.1289 238.208 55.9836 235.512 59.3141 235.512C62.6445 235.512 65.4992 238.366 65.4992 241.697V297.839H114.98C134.646 297.839 150.823 312.905 152.726 332.254H213.15L247.565 235.512H380.625L341.77 344.783Z" fill="url(#paint0_linear_124_7)"/>
<defs>
<linearGradient id="paint0_linear_124_7" x1="281.916" y1="80.6925" x2="120.785" y2="345.354" gradientUnits="userSpaceOnUse">
<stop stop-color="#BC3CDB"/>
<stop offset="0.5" stop-color="#902EA8"/>
<stop offset="1" stop-color="#642075"/>
</linearGradient>
</defs>
</svg>
