<svg width="468" height="488" viewBox="0 0 468 488" fill="none" xmlns="http://www.w3.org/2000/svg">
<path d="M177.566 366.274C178.898 361.302 178.184 356.119 175.556 351.676L169.651 341.694C164.277 332.608 152.365 329.462 143.1 334.685L135.468 338.986C129.247 333.97 122.198 329.986 114.671 327.23V318.909C114.671 308.304 105.914 299.676 95.1525 299.676H83.3404C72.5777 299.676 63.8223 308.304 63.8223 318.909V327.23C56.2936 329.985 49.2462 333.969 43.0252 338.986L35.3925 334.685C26.1282 329.465 14.216 332.609 8.84323 341.693L2.93671 351.677C0.309899 356.119 -0.403991 361.302 0.927524 366.274C2.27334 371.297 5.53493 375.483 10.1109 378.062L17.5405 382.247C16.8971 386.073 16.5731 389.952 16.5731 393.838C16.5731 397.724 16.8981 401.602 17.5405 405.429L10.1099 409.614C5.53398 412.193 2.27334 416.378 0.927524 421.402C-0.403991 426.374 0.308946 431.557 2.93671 435.999L8.84323 445.981C14.216 455.068 26.1282 458.213 35.3935 452.991L43.0261 448.69C49.2462 453.705 56.2955 457.69 63.8233 460.447V468.767C63.8233 479.372 72.5797 488 83.3414 488H95.1525C105.915 488 114.671 479.371 114.671 468.767V460.447C122.198 457.691 129.248 453.706 135.468 448.69L143.1 452.991C152.367 458.212 164.275 455.067 169.651 445.982L175.557 435.998C178.184 431.557 178.898 426.374 177.566 421.402C176.221 416.378 172.96 412.193 168.385 409.614L160.955 405.429C161.599 401.603 161.923 397.723 161.923 393.838C161.923 389.953 161.598 386.075 160.955 382.247L168.385 378.062C172.959 375.483 176.221 371.297 177.566 366.274ZM162.68 362.289C162.416 363.276 161.754 364.109 160.818 364.637L148.463 371.598C145.421 373.311 143.912 376.855 144.784 380.235C145.929 384.676 146.51 389.252 146.51 393.839C146.51 398.425 145.929 403.003 144.784 407.443C143.912 410.823 145.421 414.366 148.463 416.08L160.818 423.041C161.754 423.569 162.416 424.402 162.68 425.389C162.858 426.051 162.934 427.067 162.29 428.15L156.383 438.134C155.263 440.026 152.641 440.681 150.661 439.564L138.284 432.59C135.338 430.931 131.654 431.386 129.2 433.712C122.4 440.16 114.002 444.896 104.911 447.405C101.571 448.328 99.2567 451.367 99.2567 454.832V468.766C99.2567 470.874 97.4143 472.589 95.1497 472.589H83.3376C81.072 472.589 79.2306 470.874 79.2306 468.766V454.832C79.2306 451.367 76.9173 448.328 73.5766 447.405C64.4876 444.896 56.0877 440.16 49.2872 433.712C47.8194 432.318 45.9112 431.598 43.984 431.598C42.6897 431.598 41.3867 431.924 40.203 432.59L27.8266 439.564C25.8451 440.68 23.224 440.026 22.1041 438.132L16.1985 428.15C15.557 427.067 15.6342 426.051 15.8115 425.388C16.0755 424.401 16.737 423.568 17.673 423.04L30.0293 416.079C33.0717 414.365 34.5805 410.821 33.7084 407.441C32.5627 403.004 31.9822 398.427 31.9822 393.838C31.9822 389.249 32.5627 384.672 33.7084 380.235C34.5805 376.855 33.0717 373.31 30.0293 371.597L17.6739 364.636C16.738 364.108 16.0765 363.275 15.8125 362.288C15.6352 361.626 15.5589 360.61 16.1994 359.526L22.106 349.542C23.2259 347.65 25.847 346.997 27.8285 348.113L40.2049 355.087C43.1519 356.748 46.8357 356.291 49.2891 353.965C56.0906 347.517 64.4886 342.781 73.5785 340.272C76.9192 339.351 79.2334 336.311 79.2334 332.846V318.912C79.2334 316.804 81.0758 315.089 83.3404 315.089H95.1525C97.4181 315.089 99.2595 316.804 99.2595 318.912V332.846C99.2595 336.311 101.573 339.351 104.914 340.272C114.002 342.781 122.401 347.517 129.202 353.965C131.656 356.293 135.339 356.747 138.286 355.087L150.663 348.113C152.645 346.997 155.266 347.65 156.385 349.544L162.292 359.526C162.933 360.609 162.856 361.625 162.68 362.289Z" fill="url(#paint0_linear_31_5)"/>
<path d="M255.967 115.155C252.443 117.54 251.521 122.331 253.908 125.854C261.106 136.484 264.91 148.917 264.91 161.81C264.91 197.216 236.105 226.02 200.702 226.02C165.298 226.02 136.493 197.216 136.493 161.81C136.493 149.04 140.231 136.707 147.301 126.143C159.263 108.271 179.227 97.6 200.701 97.6C213.164 97.6 225.245 101.173 235.643 107.931C239.21 110.251 243.984 109.238 246.302 105.671C248.622 102.102 247.609 97.3312 244.041 95.0113C231.14 86.6229 216.153 82.1899 200.701 82.1899C174.073 82.1899 149.324 95.4173 134.494 117.572C125.719 130.68 121.081 145.978 121.081 161.811C121.081 205.714 156.798 241.432 200.701 241.432C244.603 241.432 280.32 205.714 280.32 161.811C280.32 145.824 275.599 130.405 266.667 117.215C264.282 113.691 259.49 112.769 255.967 115.155Z" fill="url(#paint1_linear_31_5)"/>
<path d="M120.172 386.132C115.916 386.132 112.467 389.58 112.467 393.837C112.467 406.641 102.05 417.059 89.247 417.059C76.4436 417.059 66.026 406.641 66.026 393.837C66.026 381.033 76.4427 370.615 89.247 370.615C93.1329 370.615 96.974 371.591 100.356 373.438C104.09 375.48 108.772 374.104 110.811 370.369C112.851 366.634 111.476 361.954 107.741 359.913C102.1 356.832 95.7044 355.204 89.247 355.204C67.9465 355.204 50.6168 372.534 50.6168 393.836C50.6168 415.138 67.9465 432.468 89.247 432.468C110.547 432.468 127.877 415.138 127.877 393.836C127.877 389.581 124.428 386.132 120.172 386.132Z" fill="url(#paint2_linear_31_5)"/>
<path d="M297.099 261.95C303.635 265.724 311.248 266.727 318.537 264.773C325.827 262.82 331.919 258.144 335.692 251.61L345.965 233.816C349.738 227.28 350.741 219.667 348.788 212.376C346.834 205.088 342.159 198.995 335.624 195.222L319.05 185.653C320.619 177.828 321.412 169.832 321.412 161.808C321.412 153.785 320.619 145.788 319.05 137.963L335.624 128.394C342.161 124.62 346.835 118.529 348.788 111.239C350.741 103.949 349.739 96.3352 345.965 89.8006L335.693 72.0067C331.919 65.4711 325.827 60.796 318.537 58.8431C311.247 56.8901 303.634 57.8919 297.1 61.6662L280.505 71.247C268.457 60.6311 254.365 52.4829 239.226 47.3779V28.2525C239.226 12.6747 226.552 0 210.974 0H190.428C174.85 0 162.176 12.6747 162.176 28.2525V47.3837C147.037 52.4876 132.945 60.6369 120.897 71.2528L104.303 61.672C97.7679 57.8995 90.1553 56.8968 82.8639 58.8488C75.5744 60.8018 69.482 65.4778 65.7086 72.0124L55.4358 89.8053C47.6469 103.297 52.2867 120.61 65.7772 128.398L82.3511 137.968C80.7823 145.794 79.9893 153.791 79.9893 161.813C79.9893 169.835 80.7823 177.832 82.3511 185.658L65.7772 195.227C52.2867 203.016 47.6469 220.327 55.4358 233.82L65.7095 251.614C69.483 258.149 75.5753 262.824 82.8648 264.777C90.1543 266.729 97.767 265.727 104.303 261.954L120.897 252.373C132.946 262.989 147.037 271.137 162.176 276.242V295.369C162.176 310.947 174.85 323.621 190.428 323.621H210.974C226.552 323.621 239.226 310.947 239.226 295.369V276.241C254.365 271.137 268.456 262.988 280.505 252.372L297.099 261.95ZM274.072 237.335C261.548 249.505 246.109 258.43 229.425 263.15C226.106 264.088 223.817 267.117 223.817 270.565V295.369C223.817 302.45 218.055 308.211 210.974 308.211H190.428C183.346 308.211 177.585 302.45 177.585 295.369V270.563C177.585 267.114 175.294 264.086 171.977 263.148C155.293 258.428 139.853 249.502 127.33 237.333C125.854 235.898 123.916 235.154 121.958 235.154C120.639 235.154 119.31 235.492 118.109 236.186L96.5975 248.606C93.6275 250.322 90.1658 250.78 86.8527 249.889C83.5397 249.002 80.7699 246.877 79.0552 243.906L68.7824 226.112C65.2425 219.979 67.3499 212.109 73.4823 208.569L94.9667 196.165C97.949 194.442 99.4273 190.951 98.5857 187.61C96.4707 179.21 95.3975 170.528 95.3975 161.809C95.3975 153.09 96.4698 144.409 98.5857 136.008C99.4273 132.668 97.949 129.176 94.9667 127.454L73.4823 115.05C67.3489 111.51 65.2406 103.64 68.7815 97.5075L79.0552 79.7137C80.7699 76.7437 83.5397 74.6183 86.8527 73.7299C90.1648 72.8416 93.6275 73.2972 96.5975 75.0128L118.109 87.433C121.094 89.1582 124.859 88.6883 127.33 86.2864C139.854 74.116 155.293 65.1909 171.977 60.471C175.296 59.5331 177.585 56.5041 177.585 53.0567V28.2525C177.585 21.1708 183.347 15.4101 190.428 15.4101H210.974C218.056 15.4101 223.817 21.1708 223.817 28.2525V53.0567C223.817 56.506 226.108 59.5331 229.425 60.471C246.109 65.1909 261.549 74.1169 274.072 86.2864C276.543 88.6883 280.308 89.1582 283.294 87.433L304.804 75.0148C307.774 73.3001 311.236 72.8435 314.549 73.7318C317.862 74.6192 320.631 76.7437 322.346 79.7156L332.62 97.5095C334.334 100.479 334.791 103.941 333.903 107.254C333.015 110.567 330.891 113.336 327.919 115.052L306.434 127.456C303.451 129.178 301.973 132.669 302.815 136.01C304.929 144.41 306.002 153.09 306.002 161.811C306.002 170.532 304.931 179.212 302.815 187.612C301.973 190.952 303.451 194.444 306.434 196.166L327.919 208.571C330.889 210.287 333.014 213.056 333.903 216.369C334.79 219.681 334.334 223.143 332.62 226.114L322.346 243.908C320.631 246.877 317.863 249.003 314.55 249.891C311.237 250.781 307.776 250.324 304.805 248.608L283.294 236.188C280.308 234.464 276.544 234.934 274.072 237.335Z" fill="url(#paint3_linear_31_5)"/>
<path d="M239.226 151.536C239.226 147.28 235.776 143.831 231.521 143.831H169.88C165.625 143.831 162.175 147.28 162.175 151.536C162.175 155.793 165.626 159.241 169.88 159.241H231.521C235.776 159.242 239.226 155.793 239.226 151.536Z" fill="url(#paint4_linear_31_5)"/>
<path d="M394.66 353.129C390.796 354.911 389.108 359.488 390.89 363.353C392.789 367.47 393.751 371.878 393.751 376.458C393.751 393.735 379.695 407.793 362.417 407.793C345.14 407.793 331.083 393.735 331.083 376.458C331.083 359.18 345.14 345.123 362.417 345.123C366.669 345.123 370.788 345.956 374.657 347.601C378.575 349.267 383.097 347.441 384.762 343.523C386.426 339.606 384.6 335.083 380.684 333.418C374.899 330.96 368.752 329.713 362.417 329.713C336.643 329.713 315.673 350.682 315.673 376.458C315.673 402.233 336.643 423.203 362.417 423.203C388.192 423.203 409.162 402.233 409.162 376.458C409.162 369.634 407.722 363.054 404.884 356.899C403.102 353.036 398.526 351.348 394.66 353.129Z" fill="url(#paint5_linear_31_5)"/>
<path d="M456.701 396.755L446.824 391.19C447.707 386.333 448.153 381.4 448.153 376.458C448.153 371.515 447.707 366.581 446.824 361.725L456.701 356.159C461.831 353.27 465.487 348.58 466.994 342.953C468.485 337.388 467.685 331.585 464.743 326.61L457.65 314.622C451.621 304.43 438.257 300.905 427.856 306.764L417.768 312.448C409.958 305.988 400.997 300.924 391.403 297.548V286.466C391.403 274.582 381.582 264.914 369.511 264.914H355.323C343.252 264.914 333.431 274.583 333.431 286.466V297.548C323.838 300.924 314.876 305.988 307.066 312.448L296.978 306.764C286.576 300.903 273.213 304.428 267.185 314.621L260.091 326.611C257.15 331.585 256.35 337.388 257.841 342.953C259.347 348.58 263.003 353.269 268.132 356.159L278.011 361.725C277.128 366.581 276.682 371.515 276.682 376.458C276.682 381.4 277.128 386.333 278.011 391.19L268.132 396.755C263.002 399.645 259.346 404.337 257.84 409.964C256.349 415.528 257.15 421.331 260.091 426.304L267.185 438.294C273.214 448.484 286.581 452.012 296.979 446.151L307.067 440.468C314.876 446.927 323.836 451.99 333.432 455.368V466.449C333.432 478.332 343.253 488 355.324 488H369.512C381.583 488 391.404 478.332 391.404 466.449V455.368C401 451.99 409.958 446.927 417.769 440.468L427.857 446.151C438.258 452.011 451.621 448.485 457.65 438.295L464.743 426.304C467.684 421.331 468.485 415.528 466.994 409.964C465.487 404.337 461.832 399.645 456.701 396.755ZM451.479 418.457L444.385 430.448C442.592 433.478 438.57 434.501 435.419 432.726L420.554 424.351C417.609 422.69 413.923 423.147 411.47 425.473C403.119 433.391 392.806 439.206 381.645 442.288C378.305 443.211 375.991 446.249 375.991 449.715V466.45C375.991 469.836 373.084 472.591 369.51 472.591H355.322C351.748 472.591 348.841 469.836 348.841 466.45V449.715C348.841 446.249 346.528 443.211 343.187 442.288C332.026 439.206 321.713 433.391 313.362 425.473C311.894 424.08 309.986 423.359 308.059 423.359C306.764 423.359 305.462 423.685 304.278 424.351L289.414 432.726C286.263 434.501 282.241 433.48 280.448 430.447L273.354 418.457C272.539 417.081 272.317 415.48 272.725 413.951C273.152 412.359 274.207 411.02 275.696 410.18L290.536 401.819C293.577 400.106 295.087 396.562 294.215 393.182C292.806 387.723 292.092 382.094 292.092 376.457C292.092 370.817 292.806 365.191 294.215 359.732C295.087 356.352 293.578 352.808 290.537 351.094L275.697 342.732C274.208 341.893 273.152 340.554 272.726 338.963C272.317 337.433 272.54 335.833 273.355 334.455L280.449 322.465C282.242 319.434 286.264 318.411 289.415 320.187L304.28 328.562C307.225 330.223 310.911 329.766 313.364 327.44C321.715 319.522 332.029 313.707 343.188 310.625C346.529 309.704 348.843 306.664 348.843 303.199V286.463C348.843 283.076 351.75 280.322 355.324 280.322H369.512C373.086 280.322 375.993 283.076 375.993 286.463V303.199C375.993 306.664 378.306 309.704 381.648 310.625C392.807 313.707 403.12 319.521 411.472 327.44C413.926 329.769 417.61 330.223 420.556 328.562L435.421 320.187C438.573 318.412 442.593 319.434 444.387 322.466L451.48 334.454C452.296 335.832 452.519 337.434 452.109 338.963C451.683 340.554 450.628 341.893 449.137 342.732L434.298 351.094C431.257 352.808 429.748 356.352 430.62 359.732C432.029 365.19 432.743 370.817 432.743 376.457C432.743 382.095 432.029 387.723 430.62 393.182C429.748 396.562 431.258 400.106 434.299 401.819L449.138 410.18C450.628 411.02 451.683 412.359 452.109 413.951C452.517 415.481 452.296 417.081 451.479 418.457Z" fill="url(#paint6_linear_31_5)"/>
<path d="M190.427 174.653C186.171 174.653 182.722 178.101 182.722 182.358C182.722 186.614 186.172 190.063 190.427 190.063H210.974C215.229 190.063 218.679 186.614 218.679 182.358C218.679 178.101 215.228 174.653 210.974 174.653H190.427Z" fill="url(#paint7_linear_31_5)"/>
<defs>
<linearGradient id="paint0_linear_31_5" x1="178.221" y1="459.113" x2="-5.82988" y2="337.823" gradientUnits="userSpaceOnUse">
<stop stop-color="#BC3CDB"/>
<stop offset="0.3" stop-color="#902EA8"/>
<stop offset="1" stop-color="#642075"/>
</linearGradient>
<linearGradient id="paint1_linear_31_5" x1="150.361" y1="82.1899" x2="251.037" y2="241.435" gradientUnits="userSpaceOnUse">
<stop stop-color="#BC3CDB"/>
<stop offset="0.5" stop-color="#902EA8"/>
<stop offset="1" stop-color="#642075"/>
</linearGradient>
<linearGradient id="paint2_linear_31_5" x1="64.8228" y1="355.204" x2="113.671" y2="432.468" gradientUnits="userSpaceOnUse">
<stop stop-color="#BC3CDB"/>
<stop offset="0.5" stop-color="#902EA8"/>
<stop offset="1" stop-color="#642075"/>
</linearGradient>
<linearGradient id="paint3_linear_31_5" x1="349.762" y1="273.981" x2="36.729" y2="72.8754" gradientUnits="userSpaceOnUse">
<stop stop-color="#BC3CDB"/>
<stop offset="0.3" stop-color="#902EA8"/>
<stop offset="1" stop-color="#642075"/>
</linearGradient>
<linearGradient id="paint4_linear_31_5" x1="239.226" y1="156.878" x2="230.54" y2="126.59" gradientUnits="userSpaceOnUse">
<stop stop-color="#BC3CDB"/>
<stop offset="0.3" stop-color="#902EA8"/>
<stop offset="1" stop-color="#642075"/>
</linearGradient>
<linearGradient id="paint5_linear_31_5" x1="332.863" y1="329.713" x2="391.969" y2="423.204" gradientUnits="userSpaceOnUse">
<stop stop-color="#BC3CDB"/>
<stop offset="0.5" stop-color="#902EA8"/>
<stop offset="1" stop-color="#642075"/>
</linearGradient>
<linearGradient id="paint6_linear_31_5" x1="467.727" y1="453.781" x2="249.775" y2="310.268" gradientUnits="userSpaceOnUse">
<stop stop-color="#BC3CDB"/>
<stop offset="0.3" stop-color="#902EA8"/>
<stop offset="1" stop-color="#642075"/>
</linearGradient>
<linearGradient id="paint7_linear_31_5" x1="218.679" y1="187.699" x2="204.057" y2="163.905" gradientUnits="userSpaceOnUse">
<stop stop-color="#BC3CDB"/>
<stop offset="0.3" stop-color="#902EA8"/>
<stop offset="1" stop-color="#642075"/>
</linearGradient>
</defs>
</svg>
