<svg width="99" height="99" viewBox="0 0 99 99" fill="none" xmlns="http://www.w3.org/2000/svg">
<g clip-path="url(#clip0_93_12)">
<path d="M49.5 99C76.8381 99 99 76.8381 99 49.5C99 22.1619 76.8381 0 49.5 0C22.1619 0 0 22.1619 0 49.5C0 76.8381 22.1619 99 49.5 99Z" fill="#0091E2"/>
<path d="M79.9831 44.6177C79.8284 44.492 78.4265 43.4382 75.4681 43.4382C74.685 43.4382 73.9019 43.4962 73.1285 43.6412C72.5581 39.7063 69.3096 37.7921 69.1646 37.7051L68.3718 37.241L67.8498 37.9951C67.1923 39.0103 66.7186 40.1221 66.4382 41.3016C65.9065 43.5445 66.2255 45.6521 67.3664 47.4504C65.9935 48.2142 63.7795 48.4075 63.3348 48.4172H26.7802C25.8231 48.4172 25.0497 49.1906 25.0497 50.1478C25.011 53.3479 25.5524 56.5286 26.6449 59.5354C27.9017 62.8418 29.7773 65.2685 32.2136 66.7573C34.94 68.4299 39.3776 69.387 44.4146 69.387C46.6866 69.3967 48.9586 69.184 51.1919 68.7683C54.2953 68.1978 57.2827 67.115 60.0284 65.5585C62.2907 64.2436 64.3306 62.5808 66.0612 60.6182C68.9519 57.3407 70.6825 53.6862 71.9683 50.4475H72.4807C75.6518 50.4475 77.6047 49.181 78.6779 48.1175C79.3933 47.4407 79.9541 46.6189 80.3118 45.7005L80.5341 45.0334L79.9831 44.6177ZM30.164 47.3634H35.0657C35.2977 47.3634 35.4911 47.17 35.4911 46.938V42.5777C35.4911 42.3457 35.2977 42.1523 35.0657 42.1427H30.164C29.932 42.1427 29.7386 42.336 29.7386 42.5681V46.938C29.7386 47.1797 29.932 47.3634 30.164 47.3634ZM36.9219 47.3634H41.8236C42.0556 47.3634 42.249 47.17 42.249 46.938V42.5777C42.249 42.3457 42.0556 42.1523 41.8236 42.1427H36.9219C36.6802 42.1427 36.4869 42.336 36.4869 42.5777V46.938C36.4869 47.1797 36.6802 47.3634 36.9219 47.3634ZM43.7669 47.373H48.6685C48.9005 47.373 49.0939 47.1797 49.0939 46.9477V42.5874C49.0939 42.3554 48.9005 42.162 48.6685 42.1523H43.7669C43.5348 42.1523 43.3415 42.3457 43.3415 42.5777V46.9477C43.3415 47.1797 43.5348 47.3634 43.7669 47.373ZM50.5441 47.373H55.4458C55.6778 47.373 55.8711 47.1797 55.8808 46.9477V42.5874C55.8808 42.3457 55.6875 42.1523 55.4458 42.1523H50.5441C50.3121 42.1523 50.1187 42.3457 50.1187 42.5777V46.9477C50.1187 47.1797 50.3024 47.373 50.5441 47.373ZM36.9123 41.0889H41.8139C42.046 41.0889 42.2393 40.8955 42.2393 40.6538V36.2936C42.2393 36.0615 42.046 35.8682 41.8139 35.8682H36.9123C36.6706 35.8682 36.4869 36.0615 36.4772 36.2936V40.6538C36.4869 40.8955 36.6802 41.0889 36.9123 41.0889ZM43.7669 41.0889H48.6685C48.9005 41.0889 49.0939 40.8955 49.0939 40.6538V36.2936C49.0939 36.0615 48.9005 35.8682 48.6685 35.8682H43.7669C43.5348 35.8682 43.3415 36.0615 43.3415 36.2936V40.6538C43.3415 40.8955 43.5348 41.0889 43.7669 41.0889ZM50.5441 41.0889H55.4458C55.6875 41.0889 55.8711 40.8955 55.8808 40.6538V36.2936C55.8808 36.0519 55.6875 35.8682 55.4458 35.8682H50.5441C50.3121 35.8682 50.1187 36.0615 50.1187 36.2936V40.6538C50.1187 40.8955 50.3024 41.0889 50.5441 41.0889ZM50.5441 34.8144H55.4458C55.6875 34.8144 55.8808 34.621 55.8808 34.3793V30.0094C55.8808 29.7773 55.6875 29.584 55.4458 29.584H50.5441C50.3121 29.584 50.1187 29.7773 50.1187 30.0094V34.3793C50.1187 34.621 50.3024 34.8144 50.5441 34.8144ZM57.3697 47.373H62.2713C62.5034 47.373 62.6967 47.1797 62.6967 46.9477V42.5874C62.6967 42.3457 62.5034 42.162 62.2713 42.1523H57.3697C57.1377 42.1523 56.9443 42.3457 56.9443 42.5777V46.9477C56.9443 47.1797 57.1377 47.373 57.3697 47.373Z" fill="white"/>
</g>
<defs>
<clipPath id="clip0_93_12">
<rect width="99" height="99" fill="white"/>
</clipPath>
</defs>
</svg>
