<svg width="115" height="115" viewBox="0 0 115 115" fill="none" xmlns="http://www.w3.org/2000/svg">
<path d="M55.3054 27.0178C51.393 21.1504 50.5473 13.3089 50.3628 10.0865C40.4249 12.2355 30.5516 16.0904 31.1218 18.9295C31.1937 19.2865 31.6441 19.7153 32.3916 20.1322L31.2225 22.2238C29.7946 21.4235 28.9919 20.5011 28.7739 19.3991C28.1294 16.1863 31.7687 13.2801 39.8954 10.5129C45.4441 8.62261 51.0408 7.49417 51.278 7.44865L52.7083 7.16115V8.625C52.7083 8.72563 52.7706 18.8983 57.2987 25.6905L55.3054 27.0178Z" fill="#CFD8DC"/>
<path d="M59.2993 103.021H58.698C39.0713 103.021 17.2285 96.8563 14.6482 86.5399C13.0741 80.2388 18.2228 73.2766 29.5359 66.4125L30.7817 68.4585C20.6018 74.6374 15.6975 80.8498 16.9745 85.9601C19.2146 94.9157 39.9146 100.498 58.0702 100.623C60.2289 97.3954 71.8271 78.4372 65.2074 53.0102L67.5242 52.4065C75.0687 81.3769 59.8144 102.328 59.6611 102.537L59.2993 103.021Z" fill="#CFD8DC"/>
<path d="M23.793 94.1706C22.5016 94.1706 21.8619 94.0293 21.7565 94.0029C21.3348 93.8999 21.0042 93.5765 20.8892 93.1596C20.7718 92.7427 20.8916 92.2947 21.1983 91.9904C21.3708 91.8179 38.4411 74.7213 40.7459 60.8973L43.1082 61.2902C41.1268 73.1831 29.416 86.7412 24.7657 91.7341C29.4112 91.4681 41.1412 89.2927 63.6596 76.6882C46.0862 74.762 43.307 60.6936 43.2783 60.5427L45.6334 60.1091C45.746 60.6984 48.5707 74.5104 67.7805 74.5104C67.7877 74.5104 67.7924 74.5104 67.7996 74.5104C68.3435 74.5104 68.8155 74.8746 68.9544 75.3969C69.0982 75.9192 68.8682 76.4726 68.401 76.7457C41.4838 92.3402 28.4313 94.1682 23.793 94.1706Z" fill="#CFD8DC"/>
<path d="M34.797 99.9062C34.3011 99.9062 33.8507 99.5996 33.6758 99.1276C33.4865 98.6221 33.659 98.0495 34.0999 97.7332C34.1813 97.6733 38.4435 94.5276 42.9788 87.6036C41.2346 86.8322 39.4689 85.9314 37.7176 84.8796C35.5901 83.6026 33.9825 82.2322 32.7821 80.8282C26.6249 82.4526 20.9419 83.0947 15.9514 82.6706L16.1527 80.2844C20.6473 80.6653 25.7576 80.1334 31.2967 78.751C27.5281 72.311 30.9877 65.919 31.0356 65.8327L33.1295 66.9995C32.969 67.2918 30.0988 72.6776 33.7261 78.0994C38.9993 76.5852 44.6248 74.3451 50.4466 71.4342C51.7859 67.0378 52.8329 62.0377 53.3815 56.3979C53.4199 56.0122 53.6403 55.6696 53.9757 55.4755C54.3111 55.2815 54.7208 55.2647 55.073 55.4252C55.1496 55.4611 62.893 58.9974 68.4992 61.3046C68.9065 61.4723 69.1892 61.8508 69.2348 62.2893C69.2827 62.7277 69.0838 63.1542 68.7172 63.4033C63.2332 67.1408 57.7851 70.3824 52.4783 73.0873C50.7964 78.418 48.7144 82.8551 46.5869 86.4824C55.4563 89.7958 63.1541 89.8461 63.2524 89.8461C63.7986 89.8461 64.2754 90.2151 64.4119 90.7446C64.5485 91.2741 64.3113 91.8275 63.8345 92.0934C52.9575 98.1357 35.6428 99.8368 34.912 99.9062C34.8737 99.9039 34.8354 99.9062 34.797 99.9062ZM45.3028 88.5668C42.8111 92.4336 40.3626 95.2104 38.5321 97.0241C43.319 96.3197 51.7116 94.7768 58.6763 91.8994C55.3413 91.4897 50.5137 90.5793 45.3028 88.5668ZM35.3792 80.0951C36.3208 81.0343 37.4948 81.9519 38.949 82.8264C40.7124 83.8853 42.502 84.7838 44.2678 85.5456C46.0742 82.5173 47.8639 78.8828 49.3996 74.6015C44.5577 76.9063 39.857 78.7463 35.3792 80.0951ZM55.5881 58.2882C55.0969 62.5241 54.3399 66.3885 53.4007 69.908C57.3778 67.7877 61.4363 65.3655 65.5284 62.6582C61.8173 61.0866 57.7371 59.2585 55.5881 58.2882Z" fill="#CFD8DC"/>
<path d="M42.9429 25.3958C42.6626 25.3958 42.3847 25.2952 42.1643 25.1083C38.307 21.8069 33.7669 15.089 33.5752 14.8039C33.2661 14.3462 33.314 13.7353 33.6854 13.328C34.0544 12.9183 34.6629 12.8225 35.1421 13.0836C35.1684 13.0908 37.3894 14.006 52.4328 16.5121C52.8664 16.584 53.2234 16.8858 53.3672 17.2979C53.5133 17.71 53.4199 18.17 53.1276 18.4958C48.9157 23.1749 43.5946 25.2353 43.3694 25.3192C43.2304 25.3695 43.0843 25.3958 42.9429 25.3958ZM37.4876 16.1623C38.9994 18.1964 41.1772 20.9444 43.1705 22.7964C44.3948 22.2381 47.1404 20.8366 49.7447 18.4886C43.5562 17.4321 39.7804 16.6798 37.4876 16.1623Z" fill="#CFD8DC"/>
<path d="M52.3321 58.4583C52.1692 58.4583 52.0039 58.4248 51.8506 58.3577C51.3738 58.1469 51.0863 57.6533 51.1414 57.1358C51.841 50.5497 41.7354 47.9071 41.6323 47.8831C41.2155 47.7777 40.8848 47.4543 40.7722 47.0398C40.6596 46.6253 40.777 46.1797 41.0813 45.8754C41.5772 45.3795 53.3935 33.6615 68.2189 27.2263C68.6334 27.0466 69.103 27.1136 69.4527 27.394C69.8001 27.6767 69.9607 28.1295 69.8696 28.5655C67.0282 42.3272 53.7936 57.4209 53.233 58.0558C52.9958 58.317 52.6651 58.4583 52.3321 58.4583ZM44.215 46.2036C47.0517 47.2698 52.0207 49.7375 53.2785 54.2441C56.75 49.9124 64.1604 39.9338 66.9275 30.4439C56.417 35.4991 47.5668 43.1226 44.215 46.2036Z" fill="#B71C1C"/>
<path d="M31.3352 67.9458L30.1971 65.8375C34.7085 63.4057 39.8763 58.9303 44.1097 53.729C40.5064 56.1967 38.4436 57.8857 38.3789 57.9408L36.848 56.096C36.9414 56.0194 41.0742 52.6293 47.9431 48.3815C49.8286 45.3483 51.2781 42.229 52.0232 39.239C52.1502 38.731 52.2604 38.2399 52.349 37.7655C47.737 36.1196 43.482 35.1445 40.5591 34.7252C40.1159 34.6629 39.7469 34.3586 39.5984 33.9394C39.4499 33.5201 39.5481 33.0505 39.8476 32.7247C40.0512 32.5043 44.9171 27.2909 50.9978 24.4279C51.4697 24.2051 52.0352 24.3153 52.3897 24.701C52.5503 24.8759 55.8397 28.5703 55.0036 36.213C57.7708 37.2911 60.6218 38.6017 63.3675 40.1614C69.9776 37.1905 77.4837 34.5168 85.4786 32.902C85.8907 32.8205 86.3483 32.9691 86.631 33.3045C86.9113 33.6399 86.988 34.1023 86.8299 34.5096C83.7153 42.4925 75.3634 51.0193 75.0088 51.3786C74.7668 51.623 74.4362 51.7452 74.0912 51.7332C73.7486 51.7141 73.4324 51.5511 73.2167 51.2828C70.5334 47.9095 67.0259 45.1159 63.2429 42.8423C58.0319 45.2477 53.4176 47.8208 49.625 50.1472C44.7854 57.7012 37.4805 64.6372 31.3352 67.9458ZM65.8663 41.6779C68.9569 43.6712 71.8343 46.0144 74.2134 48.7408C76.1971 46.5894 80.9577 41.1508 83.6578 35.7506C77.3088 37.2121 71.3001 39.3276 65.8663 41.6779ZM54.6227 38.6256C54.5436 39.0161 54.4526 39.4162 54.3519 39.8235C53.8488 41.8336 53.0486 43.8989 52.0232 45.9593C54.649 44.4595 57.5552 42.9118 60.6913 41.412C58.6836 40.3482 56.6352 39.4234 54.6227 38.6256ZM43.2401 32.7558C45.9018 33.2781 49.1817 34.131 52.682 35.3577C53.0462 30.9422 51.8531 28.2373 51.1319 27.0394C47.8353 28.7596 44.9483 31.1794 43.2401 32.7558Z" fill="#B71C1C"/>
<path d="M43.2447 44.3229C43.2447 54.8167 34.5 63.1542 28.1989 69.2396C27.1447 70.2698 23.575 70.4375 23.575 70.4375C24.4614 69.5271 25.4677 68.5687 26.5458 67.5385C32.5354 61.7406 40.8489 53.8104 40.8489 44.3229C40.8489 33.0865 36.3208 28.6542 32.751 25.1083C31.1697 23.5031 29.8281 21.9698 29.0135 20.101L29.7562 19.7896C30.5708 20.149 31.5052 20.5562 32.2239 20.8677C32.7989 21.7062 33.5656 22.5208 34.452 23.4073C38.1177 27.0729 43.2447 32.1042 43.2447 44.3229Z" fill="#B71C1C"/>
<path d="M102.865 47.4231C102.865 47.4231 101.416 47.6292 101.008 47.6771C80.0208 50.001 58.3625 56.0385 45.976 60.9979C41.4958 62.7948 36.8479 64.975 32.6073 67.4188C32.5833 67.4427 32.5594 67.4427 32.5115 67.4667C30.0198 68.9042 23.9583 71.875 19.0469 74.4865C26.2344 66.8438 39.699 60.95 45.0656 58.7938C57.2125 53.9302 78.0802 48.0604 98.6125 45.5448C96.1927 42.7177 90.275 36.7281 78.6312 32.2719C71.8271 29.6365 61.4771 28.151 52.349 26.8333C37.8302 24.749 29.5646 23.3594 28.774 19.4063C28.6063 18.6156 28.726 17.825 29.0854 17.0583C29.876 18.3521 31.0021 19.2625 31.7448 19.7896C32.1042 20.0292 32.3677 20.1729 32.4635 20.2208L32.4875 20.2448C35.8896 22.0417 45.0656 23.3594 52.7083 24.4615C61.9562 25.8031 72.426 27.3125 79.4937 30.0198C95.9531 36.3687 101.631 45.449 101.871 45.8323C102.086 46.1917 102.865 47.4231 102.865 47.4231Z" fill="#B71C1C"/>
</svg>
