<svg width="27" height="16" viewBox="0 0 27 16" fill="none" xmlns="http://www.w3.org/2000/svg">
<path fill-rule="evenodd" clip-rule="evenodd" d="M13.5165 0.251648C10.0939 0.251648 7.95536 1.97367 7.09934 5.4177C8.38287 3.69568 9.88016 3.05005 11.5912 3.4803C12.5674 3.72572 13.2655 4.43856 14.0376 5.22778C15.2959 6.51293 16.7525 8.00022 19.9332 8.00022C23.3552 8.00022 25.4943 6.2782 26.3498 2.83467C25.0668 4.55669 23.5695 5.20232 21.8585 4.77156C20.8817 4.52614 20.1836 3.8133 19.4116 3.0246C18.1532 1.73843 16.6972 0.251648 13.5165 0.251648ZM7.09934 8.00022C3.67725 8.00022 1.5382 9.72224 0.682678 13.1663C1.96621 11.4443 3.4635 10.7986 5.17404 11.2289C6.15077 11.4743 6.84887 12.1871 7.6209 12.9764C8.87928 14.2615 10.3353 15.7488 13.5165 15.7488C16.9386 15.7488 19.0776 14.0273 19.9332 10.5832C18.6496 12.3053 17.1523 12.9509 15.4413 12.5206C14.4651 12.2747 13.767 11.5619 12.9949 10.7732C11.7366 9.48802 10.28 8.00022 7.09934 8.00022Z" fill="#38BDF8"/>
</svg>
